Coordinates
version=1
nRows=13
nColumns=36
inDegrees=yes

Units are S.I. units (second, meters, Newtons, ...)
If the header above contains a line with 'inDegrees', this indicates whether rotational values are in degrees (yes) or radians (no).

endheader
time	pelvis_tilt	pelvis_list	pelvis_rotation	pelvis_tx	pelvis_ty	pelvis_tz	hip_flexion_r	hip_adduction_r	hip_rotation_r	knee_angle_r	knee_angle_r_beta	ankle_angle_r	subtalar_angle_r	mtp_angle_r	hip_flexion_l	hip_adduction_l	hip_rotation_l	knee_angle_l	knee_angle_l_beta	ankle_angle_l	subtalar_angle_l	mtp_angle_l	lumbar_extension	lumbar_bending	lumbar_rotation	arm_flex_r	arm_add_r	arm_rot_r	elbow_flex_r	pro_sup_r	arm_flex_l	arm_add_l	arm_rot_l	elbow_flex_l	pro_sup_l
      0.00000000	     29.60184215	     -0.78248225	      1.80053047	     -0.55760813	      0.58123114	     -0.60444126	     59.04050337	     -3.67739053	      4.13356723	     99.90183527	      1.74361595	     12.34622440	     -9.00496379	     -4.79401475	     59.59773459	     -2.07046480	      6.27054980	     99.12230018	      1.73001050	      9.53286270	     -8.59012978	     -4.79401475	    -42.85441215	      1.64082455	     -1.66586618	     -1.92727073	    -12.21212579	     12.26527125	    132.89276152	    102.31716151	     -2.42446471	     -9.18565122	      7.92259755	    132.99365395	     92.90576487
      0.01000000	     29.66468875	     -0.79403401	      1.80479715	     -0.55765391	      0.58125718	     -0.60445222	     58.96116869	     -3.67323760	      4.11644604	     99.90252857	      1.74362805	     12.39815690	     -8.98018185	     -5.15117259	     59.52496088	     -2.07076003	      6.28626543	     99.13270124	      1.73019203	      9.63381158	     -8.54608158	     -5.15117259	    -42.89963557	      1.65242151	     -1.66420491	     -1.92960315	    -12.23485190	     12.45337389	    133.20570656	     98.46080041	     -2.40926998	     -9.19985411	      8.04919440	    133.29608353	     90.52313365
      0.02000000	     29.67371917	     -0.77180706	      1.80899550	     -0.55767315	      0.58125531	     -0.60447766	     58.95703256	     -3.70264631	      4.12884092	     99.90546937	      1.74367938	     12.34043123	     -9.01708045	     -5.79984325	     59.51643433	     -2.05416231	      6.23122221	     99.11725685	      1.72992248	      9.47700315	     -8.75595056	     -5.79984325	    -42.89462076	      1.65314680	     -1.74093760	     -1.86575058	    -12.20669894	     12.34356220	    132.76804288	    102.91395669	     -2.45012222	     -9.17686811	      7.87457176	    133.04991726	     92.57480829
      0.03000000	     29.72268544	     -0.77831235	      1.80680435	     -0.55771888	      0.58132003	     -0.60445015	     58.89669788	     -3.69384434	      4.10827121	     99.89470021	      1.74349142	     12.28236438	     -9.08561323	     -6.00473000	     59.45872629	     -2.07295344	      6.23460235	     99.11156934	      1.72982321	      9.49154317	     -8.74459894	     -6.00473000	    -42.92867539	      1.64612198	     -1.70991101	     -1.91173428	    -12.21421704	     12.49896749	    133.05429428	     99.35196229	     -2.40017517	     -9.18648694	      8.04805543	    133.31963345	     90.15124718
      0.04000000	     29.73970837	     -0.74351969	      1.81218519	     -0.55771102	      0.58133869	     -0.60444754	     58.87998462	     -3.71321377	      4.14833475	     99.90423491	      1.74365784	     12.31866878	     -9.02727692	     -6.32522394	     59.42784931	     -2.04362527	      6.22253527	     99.10466566	      1.72970272	      9.52800870	     -8.67271594	     -6.32522394	    -42.90749642	      1.62305317	     -1.77207284	     -1.87068099	    -12.19951699	     12.38636188	    132.69047064	    103.03900589	     -2.42758679	     -9.15355453	      7.88009476	    133.06061168	     92.57865928
      0.05000000	     29.78161612	     -0.74317142	      1.81469997	     -0.55776131	      0.58136027	     -0.60441846	     58.82883190	     -3.72423355	      4.13204951	     99.89615682	      1.74351685	     12.35615269	     -9.01349593	     -6.43633151	     59.38258298	     -2.05044624	      6.23827354	     99.10700654	      1.72974358	      9.57746270	     -8.57923990	     -6.43633151	    -42.92193603	      1.60897711	     -1.75022827	     -1.89786552	    -12.19714608	     12.43661329	    132.84870086	    101.28736428	     -2.40832931	     -9.15477576	      7.96236145	    133.15845380	     91.45891177
      0.06000000	     29.80509816	     -0.73772202	      1.80517002	     -0.55778107	      0.58126365	     -0.60446240	     58.84356201	     -3.76478546	      4.10605889	     99.92785821	      1.74407014	     12.24341928	     -9.01944834	     -6.45785453	     59.38510942	     -2.06570787	      6.21226019	     99.13651877	      1.73025866	      9.48627181	     -8.57433673	     -6.45785453	    -42.89350056	      1.61404379	     -1.74935795	     -1.88618028	    -12.16713301	     12.36287705	    132.84810333	    101.12008347	     -2.37799361	     -9.12683539	      7.93051061	    133.16686559	     91.14824751
      0.07000000	     29.86457853	     -0.74233066	      1.79257919	     -0.55783003	      0.58125291	     -0.60448846	     58.80478391	     -3.80935956	      4.06093034	     99.94556207	      1.74437913	     12.19615281	     -9.03320502	     -6.47619792	     59.33110673	     -2.08818931	      6.19701923	     99.14807779	      1.73046040	      9.47457234	     -8.60956524	     -6.47619792	    -42.91137321	      1.61387503	     -1.74660790	     -1.89593152	    -12.16052218	     12.35352420	    132.86364095	    100.96938972	     -2.38339569	     -9.11875469	      7.94763159	    133.18435609	     90.91656883
      0.08000000	     29.88589335	     -0.74475492	      1.78228395	     -0.55791397	      0.58120543	     -0.60447229	     58.80566661	     -3.82800428	      4.04786827	     99.95341868	      1.74451625	     12.16514542	     -9.01475320	     -6.49508787	     59.31607724	     -2.09549350	      6.19591708	     99.14632924	      1.73042989	      9.46605964	     -8.60694861	     -6.49508787	    -42.88077309	      1.61135449	     -1.73549511	     -1.87276437	    -12.14252117	     12.35025531	    132.85624757	    100.67706837	     -2.33676878	     -9.10840081	      7.94451691	    133.17308399	     90.66997491
      0.09000000	     30.04381928	     -0.76578384	      1.78641614	     -0.55803835	      0.58140923	     -0.60445560	     58.58923241	     -3.82271708	      4.01907663	     99.91511831	      1.74384779	     12.39416103	     -8.85450485	     -6.69883194	     59.12570782	     -2.11872300	      6.22545348	     99.14379565	      1.73038567	      9.60356369	     -8.56910886	     -6.69883194	    -42.99858358	      1.63962157	     -1.71082073	     -1.87197950	    -12.17549235	     12.28928927	    132.62043957	    103.55254199	     -2.31728387	     -9.12599149	      7.96954374	    132.90249526	     92.56711904
      0.10000000	     30.04703992	     -0.75369031	      1.79418047	     -0.55809841	      0.58128623	     -0.60441066	     58.60867724	     -3.78974069	      4.06855232	     99.93478974	      1.74419112	     12.27581801	     -8.83254157	     -6.71679507	     59.13847505	     -2.08055790	      6.26016851	     99.14799014	      1.73045887	      9.50200147	     -8.52821179	     -6.71679507	    -42.90460571	      1.62749491	     -1.73376337	     -1.83735755	    -12.11957946	     12.23180970	    132.53599373	    103.24375427	     -2.25339162	     -9.06737344	      7.97575160	    132.80098491	     92.22238796
      0.11000000	     30.24003815	     -0.75977321	      1.83434071	     -0.55819628	      0.58145647	     -0.60445020	     58.41943720	     -3.81938916	      4.01246457	    100.00892309	      1.74548499	     12.19838769	     -8.92901356	     -6.73275193	     58.92644317	     -2.07625743	      6.26303514	     99.15715158	      1.73061877	      9.59052701	     -8.62499113	     -6.73275193	    -43.04288675	      1.65348837	     -1.78500264	     -1.83614783	    -12.19490217	     12.39305894	    132.55688462	    103.21481143	     -2.25821570	     -9.13410343	      8.37824622	    132.85530528	     91.97019621
      0.12000000	     30.34169230	     -0.74083865	      1.83944506	     -0.55832397	      0.58145873	     -0.60444750	     58.38719389	     -3.85014739	      4.01547753	    100.11226152	      1.74728859	     12.00234858	     -8.88215938	     -6.79842185	     58.82182343	     -2.04997104	      6.26637807	     99.16686904	      1.73078837	      9.65046309	     -8.56220005	     -6.79842185	    -43.06798489	      1.63564205	     -1.78146466	     -1.85123749	    -12.20688021	     12.49106340	    132.66183906	    101.64642511	     -2.21217196	     -9.15464388	      8.58809770	    132.95092988	     90.80228923
